<?xml version="1.0" encoding="UTF-8" standalone="no"?>
<!DOCTYPE svg PUBLIC "-//W3C//DTD SVG 1.1//EN"
 "http://www.w3.org/Graphics/SVG/1.1/DTD/svg11.dtd">
<!-- Generated by graphviz version 2.40.1 (20161225.0304)
 -->
<!-- Title: G Pages: 1 -->
<svg width="511pt" height="207pt"
 viewBox="0.00 0.00 510.50 207.00" xmlns="http://www.w3.org/2000/svg" xmlns:xlink="http://www.w3.org/1999/xlink">
<g id="graph0" class="graph" transform="scale(1 1) rotate(0) translate(4 203)">
<title>G</title>
<polygon fill="#ffffff" stroke="transparent" points="-4,4 -4,-203 506.5,-203 506.5,4 -4,4"/>
<g id="clust1" class="cluster">
<title>cluster_postgresql</title>
<polygon fill="#d3d3d3" stroke="#d3d3d3" points="8,-8 8,-155 192,-155 192,-8 8,-8"/>
<text text-anchor="middle" x="100" y="-139.8" font-family="Arial Bold" font-size="14.00" fill="#000000">proposed for postgresql</text>
</g>
<!-- base&#45;runtime -->
<g id="node1" class="node">
<title>base&#45;runtime</title>
<polygon fill="none" stroke="#000000" points="182,-199 94,-199 94,-163 182,-163 182,-199"/>
<text text-anchor="middle" x="138" y="-177.3" font-family="Times,serif" font-size="14.00" fill="#000000">base&#45;runtime</text>
</g>
<!-- postgresql&#45;libs -->
<g id="node4" class="node">
<title>postgresql&#45;libs</title>
<text text-anchor="middle" x="100" y="-102.3" font-family="Times,serif" font-size="14.00" fill="#000000">postgresql&#45;libs</text>
</g>
<!-- base&#45;runtime&#45;&gt;postgresql&#45;libs -->
<g id="edge3" class="edge">
<title>base&#45;runtime&#45;&gt;postgresql&#45;libs</title>
<path fill="none" stroke="#000000" d="M128.8013,-162.8446C124.307,-153.9743 118.8051,-143.1154 113.8188,-133.2739"/>
<polygon fill="#000000" stroke="#000000" points="116.8876,-131.5866 109.2457,-124.2482 110.6433,-134.7504 116.8876,-131.5866"/>
</g>
<!-- postgresql -->
<g id="node5" class="node">
<title>postgresql</title>
<ellipse fill="none" stroke="#000000" cx="118" cy="-34" rx="46.5926" ry="18"/>
<text text-anchor="middle" x="118" y="-30.3" font-family="Times,serif" font-size="14.00" fill="#000000">postgresql</text>
</g>
<!-- base&#45;runtime&#45;&gt;postgresql -->
<g id="edge2" class="edge">
<title>base&#45;runtime&#45;&gt;postgresql</title>
<path fill="none" stroke="#000000" d="M153.4236,-162.7501C154.8791,-160.2685 156.1325,-157.6573 157,-155 166.2409,-126.6924 166.1617,-116.3334 157,-88 153.6377,-77.6018 147.4434,-67.522 140.9661,-58.9426"/>
<polygon fill="#000000" stroke="#000000" points="143.4895,-56.4961 134.4888,-50.907 138.0396,-60.8892 143.4895,-56.4961"/>
</g>
<!-- common&#45;build&#45;dependencies -->
<g id="node2" class="node">
<title>common&#45;build&#45;dependencies</title>
<polygon fill="none" stroke="#000000" points="375.5,-199 200.5,-199 200.5,-163 375.5,-163 375.5,-199"/>
<text text-anchor="middle" x="288" y="-177.3" font-family="Times,serif" font-size="14.00" fill="#000000">common&#45;build&#45;dependencies</text>
</g>
<!-- shared&#45;userspace -->
<g id="node3" class="node">
<title>shared&#45;userspace</title>
<polygon fill="none" stroke="#000000" points="502.5,-199 393.5,-199 393.5,-163 502.5,-163 502.5,-199"/>
<text text-anchor="middle" x="448" y="-177.3" font-family="Times,serif" font-size="14.00" fill="#000000">shared&#45;userspace</text>
</g>
<!-- postgresql&#45;libs&#45;&gt;postgresql -->
<g id="edge1" class="edge">
<title>postgresql&#45;libs&#45;&gt;postgresql</title>
<path fill="none" stroke="#000000" d="M104.5422,-87.8314C106.4884,-80.0463 108.8068,-70.7729 110.9663,-62.1347"/>
<polygon fill="#000000" stroke="#000000" points="114.3668,-62.9636 113.3967,-52.4133 107.5758,-61.2658 114.3668,-62.9636"/>
</g>
</g>
</svg>
